<svg id="svg" version="1.1" xmlns="http://www.w3.org/2000/svg" xmlns:xlink="http://www.w3.org/1999/xlink" width="400" height="400" viewBox="0, 0, 400,400"><g id="svgg"><path id="path0" d="M187.483 89.570 C 184.945 90.141,184.090 90.539,182.883 91.716 C 180.962 93.588,179.334 94.237,175.187 94.787 C 171.071 95.332,168.200 96.203,166.600 97.393 C 164.885 98.668,157.142 100.396,148.707 101.387 C 146.299 101.669,145.813 102.044,144.312 104.772 C 143.933 105.461,143.041 106.333,142.329 106.712 C 139.815 108.048,138.998 109.204,138.453 112.198 C 137.882 115.337,136.906 117.185,135.166 118.424 C 133.219 119.811,132.932 120.881,132.653 127.800 C 132.346 135.428,132.147 136.380,129.843 141.246 C 127.169 146.891,127.075 149.809,129.401 154.890 C 130.837 158.027,131.868 162.559,132.559 168.775 C 133.046 173.160,133.375 174.597,134.345 176.575 C 135.156 178.229,135.603 179.855,135.751 181.690 C 135.870 183.169,136.244 184.801,136.581 185.315 C 137.327 186.453,138.799 192.054,138.802 193.764 C 138.807 196.602,139.526 197.949,141.594 198.997 C 143.216 199.819,143.776 200.415,144.875 202.494 C 145.883 204.401,146.582 205.197,147.800 205.826 C 148.700 206.290,149.750 207.272,150.200 208.068 C 151.428 210.242,152.062 210.869,153.825 211.650 C 155.634 212.453,156.427 213.227,157.249 214.993 C 157.554 215.649,158.408 216.549,159.145 216.993 C 163.550 219.644,164.290 221.774,163.800 230.400 C 163.491 235.845,162.812 237.710,160.448 239.610 C 159.542 240.338,158.800 241.112,158.800 241.329 C 158.800 242.325,156.497 244.583,154.591 245.455 C 153.152 246.114,152.160 246.924,151.420 248.042 C 150.639 249.222,149.718 249.944,148.071 250.669 C 145.339 251.873,143.200 253.429,143.200 254.215 C 143.200 254.531,142.521 255.219,141.691 255.743 C 139.456 257.153,138.188 259.329,137.609 262.749 L 137.110 265.698 138.255 266.660 C 138.885 267.189,140.526 268.171,141.902 268.841 C 143.278 269.511,144.588 270.404,144.814 270.826 C 145.632 272.354,146.399 272.554,158.755 274.450 C 161.367 274.851,164.645 276.250,165.562 277.354 C 166.450 278.424,170.326 279.598,174.332 280.010 C 179.497 280.542,181.891 281.288,183.871 282.982 C 185.705 284.552,187.636 285.462,191.803 286.719 C 193.793 287.319,195.206 288.076,196.677 289.332 C 198.046 290.500,199.808 291.480,201.874 292.220 C 205.558 293.540,206.923 294.407,207.885 296.036 C 208.429 296.957,209.102 297.370,210.796 297.825 C 217.207 299.546,217.326 299.602,219.477 301.888 L 221.554 304.097 227.077 305.070 C 232.802 306.079,235.721 307.132,236.420 308.438 C 237.806 311.027,261.494 312.681,267.151 310.584 C 273.767 308.132,275.559 299.990,270.435 295.668 C 269.152 294.586,268.383 293.515,267.877 292.108 C 267.080 289.890,266.067 288.793,264.099 288.016 C 263.184 287.654,262.473 286.895,261.699 285.451 C 260.873 283.910,260.156 283.176,258.813 282.499 C 256.579 281.373,256.042 280.835,255.019 278.704 C 254.413 277.443,253.684 276.722,252.212 275.928 C 250.808 275.171,249.913 274.313,249.168 273.013 C 247.956 270.896,246.966 270.031,245.736 270.013 C 243.182 269.975,239.873 268.428,237.847 266.326 C 236.721 265.157,235.350 263.999,234.800 263.754 C 231.843 262.433,231.453 262.123,230.784 260.563 C 230.120 259.013,228.353 257.200,227.507 257.200 C 226.152 257.200,224.231 255.689,223.150 253.773 C 222.496 252.615,221.511 251.372,220.962 251.012 C 218.013 249.079,217.232 241.598,219.591 237.878 C 220.246 236.845,220.949 236.000,221.153 236.000 C 221.357 236.000,222.090 234.996,222.783 233.768 C 224.896 230.025,225.341 229.919,240.400 229.572 C 247.330 229.413,253.041 229.264,253.091 229.241 C 254.462 228.622,254.610 226.986,255.454 203.078 C 255.754 194.582,255.789 194.480,259.135 192.397 C 260.139 191.772,261.426 190.573,261.996 189.731 C 262.567 188.889,263.676 187.895,264.462 187.523 C 267.070 186.286,268.072 184.671,267.333 182.896 C 266.162 180.084,265.273 178.600,264.084 177.471 C 262.912 176.357,262.320 175.211,261.016 171.523 C 260.367 169.691,259.967 169.049,257.304 165.579 C 254.774 162.283,254.531 159.933,255.183 145.033 C 255.983 126.746,255.331 120.613,252.221 117.170 C 250.488 115.253,249.826 113.972,249.068 111.068 C 248.324 108.217,247.528 106.966,245.813 105.955 C 245.083 105.524,244.267 104.645,244.000 104.001 C 243.448 102.668,241.624 101.155,239.498 100.267 C 238.504 99.852,237.786 99.149,237.218 98.036 C 236.148 95.937,235.214 95.360,231.692 94.619 C 227.901 93.822,226.215 93.088,224.391 91.440 C 222.847 90.045,222.435 89.901,218.000 89.211 C 213.373 88.491,191.120 88.753,187.483 89.570 " stroke="none" fill="#07060a" fill-rule="evenodd"></path><path id="path1" d="M16.667 0.267 C 16.520 0.413,16.400 1.123,16.400 1.843 C 16.400 3.413,15.971 3.745,14.390 3.398 C 13.353 3.170,13.200 2.961,13.200 1.768 L 13.200 0.400 11.000 0.400 L 8.800 0.400 8.800 1.769 C 8.800 2.639,8.442 3.564,7.820 4.304 C 7.280 4.944,6.057 6.983,5.102 8.834 C 3.452 12.029,3.291 12.206,1.928 12.321 C 0.682 12.427,0.459 12.606,0.246 13.671 C -0.078 15.292,-0.074 385.530,0.250 387.150 C 0.478 388.291,0.635 388.400,2.044 388.400 C 4.874 388.400,6.177 390.062,5.637 392.984 C 4.972 396.583,5.063 399.462,5.853 399.765 C 6.212 399.903,95.032 400.005,203.231 399.992 L 399.957 399.968 399.878 202.484 L 399.800 5.000 395.143 4.888 C 389.936 4.762,390.018 4.816,390.005 1.500 L 390.000 0.000 203.467 0.000 C 100.873 0.000,16.813 0.120,16.667 0.267 M211.634 45.459 C 213.600 47.004,214.002 47.528,214.014 48.559 C 214.022 49.242,214.286 50.250,214.600 50.800 C 214.914 51.350,215.178 52.205,215.186 52.700 C 215.201 53.659,217.272 54.055,217.800 53.200 C 218.182 52.582,222.400 52.689,222.400 53.317 C 222.400 53.602,221.815 54.007,221.100 54.217 C 219.504 54.687,219.409 57.620,220.883 60.900 C 221.957 63.290,221.862 63.306,225.045 60.200 C 226.511 58.770,227.831 57.600,227.978 57.600 C 228.731 57.600,229.804 58.872,230.179 60.210 C 230.883 62.719,232.089 63.292,237.283 63.587 C 241.348 63.817,242.125 63.991,245.050 65.321 C 246.838 66.135,248.469 66.800,248.674 66.800 C 249.554 66.800,251.590 69.349,251.819 70.736 C 252.409 74.314,252.982 74.886,254.738 73.657 C 255.322 73.249,256.790 72.814,258.000 72.692 C 260.669 72.421,263.753 71.406,265.236 70.310 C 266.272 69.545,266.483 69.530,269.065 70.043 C 272.292 70.684,272.640 71.017,275.652 76.333 C 277.127 78.936,278.135 80.254,278.983 80.689 C 279.652 81.032,280.946 81.823,281.858 82.447 C 283.378 83.486,285.422 84.322,288.000 84.959 C 289.600 85.355,290.797 86.623,291.528 88.697 C 291.902 89.759,292.429 90.892,292.699 91.214 C 292.969 91.536,293.785 92.610,294.513 93.600 C 295.240 94.590,296.404 95.760,297.098 96.200 C 298.625 97.168,299.600 99.371,299.600 101.854 C 299.600 103.596,299.754 103.851,302.552 106.746 C 305.351 109.642,305.518 109.919,305.781 112.100 C 305.933 113.365,306.218 114.400,306.413 114.400 C 306.609 114.400,307.095 114.751,307.495 115.179 C 308.364 116.112,316.396 116.125,319.624 115.198 C 322.480 114.379,325.344 115.725,329.700 119.934 C 331.882 122.043,331.904 122.130,330.699 123.975 C 328.717 127.006,328.398 127.679,328.546 128.522 C 328.631 129.005,328.375 130.390,327.977 131.600 C 327.004 134.558,327.007 134.583,328.553 136.299 C 330.765 138.753,331.614 140.556,331.215 141.949 C 330.206 145.467,332.690 151.920,335.079 151.987 C 335.578 152.001,337.600 153.716,337.600 154.125 C 337.600 154.714,339.551 156.403,339.788 156.020 C 340.241 155.287,340.791 155.555,342.411 157.300 C 344.293 159.327,344.373 159.825,342.862 160.128 C 342.236 160.253,340.642 161.101,339.321 162.013 C 337.045 163.584,336.838 163.648,335.377 163.245 C 332.982 162.584,332.230 164.956,334.240 166.830 C 334.812 167.364,335.913 168.750,336.686 169.911 L 338.092 172.022 337.934 175.964 C 337.847 178.132,337.574 180.153,337.327 180.453 C 335.462 182.726,335.911 185.465,338.245 186.053 C 339.210 186.296,340.000 186.642,340.000 186.823 C 340.000 187.003,340.810 187.732,341.800 188.443 C 342.790 189.154,343.600 190.025,343.600 190.379 C 343.600 191.287,339.505 195.037,338.140 195.379 C 335.653 196.004,335.421 196.882,337.522 197.722 C 338.360 198.057,340.160 199.422,341.522 200.756 L 344.000 203.180 344.000 216.190 C 344.000 223.346,343.863 229.200,343.695 229.200 C 343.527 229.200,343.212 229.596,342.995 230.081 C 342.773 230.575,342.043 231.103,341.331 231.284 C 340.125 231.591,336.800 234.830,336.800 235.699 C 336.800 236.788,334.150 241.311,332.172 243.600 C 330.935 245.030,329.686 246.740,329.396 247.400 C 326.851 253.185,326.492 255.600,328.176 255.600 C 331.038 255.600,330.402 259.655,327.028 262.921 C 325.920 263.994,325.498 264.062,323.952 263.422 C 323.595 263.275,323.055 263.400,322.752 263.701 C 322.087 264.360,319.655 265.600,319.027 265.600 C 318.779 265.600,318.317 265.960,318.000 266.400 C 317.683 266.840,317.270 267.200,317.083 267.200 C 315.308 267.200,314.677 271.224,316.047 273.806 C 316.570 274.792,317.129 275.600,317.289 275.600 C 319.064 275.600,319.252 281.179,317.543 283.126 C 313.416 287.826,312.976 292.036,316.647 291.684 C 318.420 291.514,319.176 292.585,318.589 294.434 C 318.392 295.057,318.544 295.200,319.402 295.200 C 320.192 295.200,320.425 295.376,320.324 295.899 C 320.128 296.915,317.696 297.959,315.471 297.981 C 314.409 297.991,312.159 298.466,310.471 299.035 C 308.782 299.605,305.805 300.421,303.856 300.848 C 301.907 301.276,299.680 301.890,298.907 302.213 C 296.923 303.042,295.555 302.947,292.962 301.800 C 290.216 300.586,290.515 300.565,290.202 301.991 C 289.829 303.691,290.260 304.673,291.584 305.135 C 293.800 305.907,294.460 306.985,294.395 309.727 C 294.315 313.144,294.325 313.200,295.000 313.200 C 295.330 313.200,295.600 313.346,295.600 313.525 C 295.600 313.703,295.969 314.245,296.420 314.730 C 297.888 316.305,294.400 317.605,292.335 316.252 C 290.833 315.267,284.546 315.554,284.135 316.626 C 283.794 317.515,280.940 319.240,278.334 320.134 C 275.411 321.137,274.672 322.164,274.547 325.400 C 274.505 326.500,274.262 327.940,274.007 328.599 C 273.753 329.258,273.660 330.248,273.801 330.799 C 274.591 333.886,274.536 334.309,273.260 334.969 C 270.598 336.346,268.559 335.283,269.713 333.120 C 270.106 332.386,270.397 331.248,270.360 330.592 C 270.323 329.936,270.416 329.114,270.565 328.764 C 270.992 327.765,269.939 327.221,267.366 327.111 C 264.137 326.973,262.815 327.610,261.600 329.889 C 260.883 331.233,260.013 332.108,258.528 332.982 C 255.283 334.889,253.266 337.713,254.800 338.200 C 255.776 338.510,255.784 338.738,254.864 339.934 C 254.186 340.815,253.965 340.855,250.973 340.629 C 244.235 340.122,244.491 340.088,244.215 341.522 C 244.050 342.380,241.253 345.598,240.671 345.599 C 240.081 345.601,239.133 344.407,238.837 343.292 C 238.586 342.346,238.245 342.140,236.290 341.749 C 233.301 341.152,232.800 340.935,232.800 340.240 C 232.800 339.639,233.182 339.466,235.587 338.979 C 236.350 338.825,237.250 338.546,237.587 338.359 C 237.924 338.173,238.875 337.755,239.699 337.431 C 241.643 336.667,242.307 335.306,241.584 333.562 L 241.057 332.289 237.329 332.534 C 233.336 332.796,231.509 333.456,230.762 334.904 C 229.104 338.121,226.891 338.477,223.954 336.000 C 222.910 335.120,221.864 334.400,221.628 334.400 C 220.858 334.400,220.957 337.174,221.788 338.874 C 224.466 344.354,210.928 344.327,207.983 338.846 C 206.375 335.855,203.330 332.653,202.454 333.034 C 202.094 333.190,199.775 333.442,197.300 333.593 C 192.497 333.886,191.996 334.050,192.643 335.118 C 192.870 335.493,192.926 336.250,192.768 336.800 C 192.609 337.350,192.462 338.451,192.440 339.247 C 192.395 340.885,191.182 341.889,187.228 343.564 C 183.374 345.196,178.492 343.561,174.145 339.180 L 172.090 337.109 168.746 337.787 C 166.907 338.160,165.388 338.495,165.370 338.532 C 165.353 338.569,165.096 339.208,164.800 339.951 C 164.253 341.321,161.187 343.187,159.467 343.196 C 156.099 343.214,152.169 341.518,149.517 338.902 C 146.389 335.816,145.839 335.822,143.583 338.963 C 141.234 342.235,139.735 341.973,138.478 338.069 C 137.399 334.720,137.392 334.177,138.400 332.200 C 139.689 329.673,138.841 328.278,134.985 326.582 C 132.128 325.326,130.800 324.177,130.800 322.963 C 130.800 322.469,130.696 321.795,130.570 321.465 C 130.257 320.651,123.542 314.916,120.719 313.053 C 119.464 312.224,118.326 311.198,118.191 310.771 C 117.380 308.217,116.130 307.556,112.248 307.629 C 107.225 307.724,105.819 307.002,105.065 303.939 C 104.662 302.299,101.127 299.395,97.989 298.125 C 95.664 297.185,95.139 296.796,94.793 295.761 C 94.565 295.080,93.618 293.787,92.689 292.889 C 91.760 291.992,89.425 289.736,87.500 287.876 C 83.940 284.437,83.583 283.888,84.539 283.320 C 84.835 283.144,85.755 282.105,86.582 281.012 C 87.410 279.919,88.337 278.839,88.643 278.612 C 89.107 278.269,89.033 277.872,88.200 276.232 C 87.650 275.150,87.200 273.837,87.200 273.314 C 87.200 270.828,83.582 269.560,80.994 271.139 C 77.861 273.049,74.494 269.072,74.106 263.002 C 73.817 258.476,71.976 255.825,68.238 254.551 C 67.252 254.215,65.630 253.223,64.634 252.347 C 62.058 250.079,57.902 248.000,55.945 248.000 C 53.625 248.000,52.903 247.443,52.213 245.121 C 50.751 240.195,52.019 233.376,53.852 236.311 C 54.477 237.312,60.123 238.328,61.003 237.597 C 61.512 237.175,61.962 237.305,63.670 238.367 C 66.115 239.887,66.385 239.681,66.394 236.280 C 66.401 233.644,65.351 232.800,62.066 232.800 C 53.226 232.800,51.606 220.714,59.925 216.832 C 61.727 215.991,62.728 214.800,61.633 214.800 C 61.320 214.800,60.354 213.984,57.513 211.319 C 55.741 209.657,55.685 209.277,57.055 208.200 C 62.498 203.925,60.111 198.000,52.946 198.000 C 50.794 198.000,49.900 196.815,49.244 193.095 C 48.619 189.547,52.309 181.125,53.712 182.896 C 53.981 183.235,54.920 183.734,55.800 184.006 C 56.680 184.279,57.710 184.772,58.089 185.102 C 58.491 185.453,59.905 185.785,61.489 185.900 C 62.980 186.009,64.527 186.268,64.926 186.476 C 65.693 186.878,66.371 186.515,67.681 185.000 C 68.205 184.395,68.377 183.452,68.387 181.134 L 68.400 178.067 66.842 176.834 C 65.986 176.155,65.054 175.600,64.773 175.600 C 64.081 175.600,60.732 172.021,60.063 170.568 C 59.768 169.925,59.273 168.890,58.963 168.268 C 58.251 166.835,58.245 165.730,58.948 165.320 C 59.249 165.144,59.871 164.259,60.329 163.353 C 60.787 162.448,61.594 161.188,62.122 160.553 C 62.743 159.808,63.183 158.621,63.367 157.200 C 63.680 154.784,65.395 151.079,67.330 148.635 C 68.520 147.133,68.576 146.898,68.603 143.232 C 68.651 136.769,70.100 132.473,72.253 132.413 C 72.971 132.393,74.649 129.949,76.229 126.621 C 77.030 124.932,78.101 123.136,78.607 122.629 C 79.114 122.122,79.926 120.918,80.412 119.954 C 82.196 116.412,97.200 102.468,97.200 104.352 C 97.200 105.857,104.671 108.004,105.709 106.797 C 106.750 105.587,104.591 96.398,103.099 95.683 C 100.987 94.671,100.654 93.293,100.937 86.752 C 101.154 81.732,101.101 80.816,100.570 80.375 C 99.380 79.388,102.253 74.342,104.618 73.264 C 107.261 72.060,110.000 72.789,110.000 74.695 C 110.000 75.041,110.450 75.914,111.000 76.636 C 111.550 77.357,112.001 78.364,112.003 78.873 C 112.013 82.231,117.960 82.259,118.197 78.903 C 118.240 78.296,118.303 77.595,118.337 77.344 C 118.372 77.093,119.197 75.805,120.172 74.481 L 121.944 72.073 124.974 71.790 C 128.760 71.435,128.972 71.598,129.824 75.532 C 130.975 80.846,131.937 81.401,137.925 80.204 L 141.400 79.510 143.800 80.978 C 147.267 83.099,150.800 81.820,150.800 78.444 C 150.800 76.242,151.277 74.894,152.238 74.380 C 153.887 73.497,154.496 72.156,154.206 70.045 C 153.779 66.938,153.645 66.876,150.499 68.327 C 147.288 69.807,145.491 69.949,144.507 68.800 C 144.130 68.360,143.637 67.990,143.411 67.978 C 143.185 67.966,142.584 67.429,142.077 66.786 L 141.153 65.617 142.560 64.381 C 143.334 63.702,144.428 62.172,144.991 60.983 C 146.228 58.368,146.476 58.226,150.884 57.609 C 155.046 57.027,156.232 56.189,156.658 53.530 C 157.431 48.692,161.873 48.826,162.756 53.714 C 163.170 56.003,164.008 57.034,165.726 57.369 C 166.427 57.506,167.449 57.963,167.999 58.385 L 168.997 59.152 166.699 61.291 C 161.215 66.394,165.162 69.472,174.812 67.618 C 179.699 66.679,181.105 65.058,178.540 63.319 C 173.774 60.088,174.317 58.323,180.543 56.810 L 183.400 56.115 183.287 53.694 C 183.163 51.021,183.841 50.159,186.882 49.121 C 187.607 48.874,188.629 48.341,189.154 47.936 C 190.371 46.997,191.298 47.003,192.158 47.954 C 192.534 48.369,193.327 48.806,193.920 48.925 C 195.701 49.283,197.700 50.895,198.193 52.371 C 198.737 53.995,202.618 57.589,203.836 57.596 C 205.076 57.602,205.695 55.897,205.376 53.347 C 205.145 51.501,205.247 50.990,206.155 49.440 C 206.730 48.460,207.200 47.196,207.200 46.632 C 207.200 45.774,208.566 43.600,209.106 43.600 C 209.195 43.600,210.332 44.437,211.634 45.459 M236.900 52.277 C 239.121 53.073,239.268 53.406,237.550 53.750 C 234.492 54.362,233.313 53.936,233.801 52.396 C 234.110 51.423,234.478 51.409,236.900 52.277 M185.213 55.784 C 183.374 58.000,186.485 62.882,190.369 63.874 C 193.140 64.582,194.801 57.566,192.279 55.800 C 191.106 54.979,185.892 54.967,185.213 55.784 M207.805 58.350 C 207.056 58.511,206.553 58.900,206.458 59.393 C 206.271 60.366,205.261 61.169,204.200 61.190 C 203.232 61.209,198.800 64.653,198.800 65.386 C 198.800 66.489,203.076 67.769,204.828 67.191 C 207.806 66.208,209.455 64.365,209.759 61.680 C 210.013 59.433,209.808 57.946,209.257 58.047 C 209.116 58.073,208.462 58.210,207.805 58.350 M214.097 71.700 C 214.354 72.481,216.800 72.594,216.800 71.825 C 216.800 71.375,216.400 71.200,215.367 71.200 C 214.399 71.200,213.987 71.362,214.097 71.700 M170.380 77.021 C 169.287 78.185,169.721 78.783,171.667 78.794 C 173.997 78.807,174.523 78.123,173.200 76.800 C 172.143 75.743,171.536 75.791,170.380 77.021 M192.800 80.195 C 190.710 80.509,188.233 80.875,187.295 81.008 C 186.117 81.176,185.045 81.722,183.825 82.778 C 182.275 84.120,181.606 84.388,178.330 84.980 C 176.279 85.350,173.880 85.976,173.000 86.371 C 172.120 86.766,170.412 87.301,169.205 87.560 C 167.704 87.881,166.688 88.383,165.989 89.147 C 165.027 90.201,164.663 90.294,159.584 90.778 C 156.623 91.061,152.850 91.423,151.200 91.584 C 148.042 91.891,144.961 93.453,143.875 95.298 C 143.614 95.742,142.107 96.702,140.526 97.431 C 137.558 98.799,137.083 99.298,136.669 101.486 C 136.308 103.395,134.213 106.033,132.422 106.835 C 130.564 107.667,128.801 110.878,128.798 113.439 C 128.794 116.214,128.019 118.086,126.155 119.821 L 124.400 121.456 124.400 124.782 C 124.400 126.611,124.224 128.758,124.009 129.554 C 123.794 130.349,123.072 133.837,122.404 137.304 C 121.737 140.771,120.912 144.303,120.572 145.153 C 119.998 146.587,120.014 146.949,120.792 150.165 C 121.253 152.072,121.984 156.421,122.416 159.831 C 123.394 167.532,123.732 169.054,124.995 171.428 C 125.548 172.468,126.000 173.527,126.000 173.782 C 126.000 174.036,126.424 174.819,126.941 175.520 C 127.751 176.618,127.921 177.449,128.162 181.475 C 128.720 190.808,130.079 195.478,132.584 196.673 C 133.629 197.171,134.036 197.698,134.413 199.047 C 134.945 200.947,137.050 204.570,138.307 205.748 C 138.745 206.159,139.661 206.995,140.341 207.606 C 141.175 208.355,141.661 209.240,141.835 210.328 C 142.220 212.735,143.374 214.332,145.338 215.173 C 146.552 215.694,147.224 216.292,147.591 217.179 C 148.132 218.484,150.475 220.000,151.953 220.000 C 154.866 220.000,156.145 224.355,155.215 231.107 C 154.374 237.221,151.261 240.879,145.800 242.170 C 143.870 242.627,142.800 243.534,142.006 245.386 C 141.319 246.989,141.106 247.154,139.201 247.563 C 135.968 248.256,135.399 248.820,134.261 252.462 C 134.147 252.827,133.527 253.240,132.883 253.382 C 127.594 254.543,126.836 270.404,131.856 274.860 C 133.156 276.014,135.644 276.810,139.951 277.450 C 145.003 278.201,145.721 278.455,147.613 280.164 C 149.172 281.573,150.960 282.093,158.652 283.375 C 162.891 284.081,163.709 284.355,165.781 285.761 C 166.622 286.332,168.050 286.985,168.955 287.212 C 169.860 287.439,171.770 287.964,173.200 288.379 C 174.630 288.794,177.600 289.434,179.800 289.802 C 184.956 290.664,184.685 290.552,185.332 292.083 C 186.214 294.167,187.152 294.710,191.820 295.839 C 194.229 296.422,196.416 296.957,196.679 297.029 C 196.943 297.100,197.349 297.867,197.582 298.733 C 198.139 300.802,198.378 300.957,202.600 302.002 C 207.111 303.119,207.845 303.505,209.691 305.732 C 211.042 307.362,211.458 307.593,214.091 308.180 C 220.381 309.582,221.127 309.900,222.227 311.642 C 223.561 313.757,225.079 314.352,230.774 314.995 C 236.209 315.609,236.359 315.661,237.400 317.301 C 238.987 319.800,239.735 319.980,250.349 320.414 C 258.320 320.741,260.494 320.709,262.895 320.233 C 264.493 319.916,266.610 319.537,267.600 319.390 C 269.763 319.069,271.115 318.276,271.579 317.055 C 271.834 316.385,272.551 315.978,274.368 315.473 C 275.713 315.099,277.121 314.434,277.496 313.996 C 277.871 313.558,278.565 313.200,279.039 313.200 C 283.263 313.200,283.713 312.371,283.169 305.586 C 282.677 299.451,282.191 297.983,280.043 296.144 C 278.374 294.715,277.367 292.451,276.795 288.840 C 276.408 286.395,276.020 286.015,273.900 286.006 C 272.018 285.998,270.973 285.006,270.615 282.886 C 270.295 280.994,269.122 279.806,267.221 279.448 C 265.258 279.078,264.109 278.207,263.814 276.864 C 263.519 275.520,262.239 274.220,260.800 273.801 C 259.471 273.414,257.600 271.627,257.600 270.744 C 257.600 269.000,256.682 267.988,254.534 267.363 C 253.117 266.952,251.698 266.117,250.297 264.872 C 247.249 262.162,244.225 260.426,242.526 260.409 C 240.666 260.390,239.651 259.675,239.222 258.081 C 238.707 256.168,237.869 255.380,235.492 254.569 C 233.499 253.891,233.038 253.479,232.047 251.495 C 231.637 250.674,230.779 249.911,229.704 249.412 C 225.737 247.569,225.941 238.863,229.980 237.653 C 230.878 237.384,232.256 236.599,233.043 235.909 C 234.419 234.701,234.534 234.672,236.136 235.138 C 246.924 238.275,251.898 238.469,254.780 235.865 C 255.694 235.040,256.887 234.195,257.431 233.988 C 257.975 233.782,258.793 232.980,259.249 232.206 C 259.706 231.433,260.234 230.800,260.423 230.800 C 261.099 230.800,262.781 227.333,263.400 224.662 C 264.052 221.852,264.023 221.565,262.578 216.550 C 262.427 216.026,262.691 215.027,263.266 213.950 C 264.133 212.325,264.209 211.659,264.331 204.600 C 264.474 196.319,264.668 195.600,266.765 195.600 C 275.346 195.600,281.106 182.046,274.154 178.211 C 272.678 177.397,269.719 172.590,269.628 170.860 C 269.559 169.538,268.271 167.687,266.997 167.079 C 266.171 166.685,265.549 166.059,265.441 165.511 C 265.343 165.010,264.970 163.430,264.613 162.000 C 262.663 154.176,262.612 153.713,263.334 150.234 C 264.475 144.738,264.837 137.314,264.413 128.082 C 263.976 118.562,263.683 117.395,261.330 115.839 C 259.777 114.811,258.889 112.792,257.208 106.466 C 256.811 104.969,256.508 104.626,255.001 103.959 C 253.371 103.238,253.224 103.043,252.808 101.038 C 252.279 98.491,251.542 97.725,248.997 97.081 C 247.257 96.640,247.045 96.451,246.440 94.800 C 245.728 92.854,244.462 91.958,241.354 91.200 C 239.900 90.845,239.628 90.588,239.019 88.995 C 238.122 86.646,236.254 85.760,230.600 85.003 C 227.157 84.542,226.060 84.046,225.398 82.653 C 224.187 80.100,223.894 80.048,209.561 79.825 C 199.533 79.669,195.740 79.753,192.800 80.195 M121.500 83.862 C 120.644 84.103,120.606 84.793,121.392 85.824 C 121.825 86.390,122.071 86.470,122.304 86.119 C 122.480 85.854,123.834 85.408,125.312 85.127 C 128.378 84.546,128.832 84.000,126.250 84.000 C 125.288 84.000,123.983 83.925,123.350 83.832 C 122.718 83.740,121.885 83.753,121.500 83.862 M212.200 83.984 C 213.080 84.184,215.954 84.546,218.587 84.788 C 226.154 85.483,231.350 86.995,233.917 89.249 C 234.700 89.937,235.985 90.767,236.771 91.093 C 239.165 92.088,243.122 94.822,244.187 96.218 C 244.741 96.944,246.265 98.189,247.575 98.985 C 250.062 100.495,250.145 100.618,252.909 106.800 C 253.449 108.010,254.383 109.450,254.984 110.000 C 256.399 111.296,257.018 112.525,258.598 117.176 C 259.313 119.279,260.190 121.766,260.547 122.702 C 263.115 129.424,262.944 142.072,260.187 149.396 C 258.569 153.695,258.973 157.767,261.271 160.309 C 262.670 161.859,262.804 162.138,264.617 167.298 C 265.390 169.499,266.260 171.030,267.618 172.582 C 268.689 173.805,269.905 175.768,270.382 177.043 C 270.857 178.313,272.022 180.197,273.017 181.303 C 274.133 182.544,274.800 183.664,274.800 184.296 C 274.800 185.366,273.371 188.000,272.791 188.000 C 272.602 188.000,271.603 189.096,270.572 190.436 C 269.291 192.101,268.162 193.102,267.008 193.597 C 266.078 193.995,264.667 194.892,263.872 195.590 L 262.427 196.859 262.438 202.641 C 262.449 208.845,262.436 208.897,259.576 214.000 C 258.773 215.432,258.782 217.092,259.609 220.322 C 259.826 221.168,259.755 222.609,259.413 224.322 C 259.119 225.795,258.762 227.679,258.620 228.509 C 257.827 233.120,255.777 233.759,241.600 233.813 C 227.953 233.866,228.689 233.679,226.895 237.560 C 223.838 244.172,225.241 249.940,230.807 253.648 C 232.013 254.452,234.403 256.394,236.117 257.963 C 237.998 259.685,240.261 261.302,241.820 262.039 C 243.317 262.746,244.825 263.810,245.402 264.567 C 246.024 265.383,247.025 266.061,248.070 266.374 C 250.463 267.091,251.493 267.875,252.662 269.870 C 253.229 270.836,254.256 271.912,254.946 272.260 C 256.730 273.161,257.961 274.372,258.844 276.095 C 259.341 277.063,260.207 277.891,261.305 278.449 C 263.527 279.575,270.662 286.840,271.429 288.755 C 271.756 289.572,272.543 290.548,273.179 290.924 C 275.211 292.124,276.259 293.796,277.156 297.269 C 277.630 299.101,278.311 301.184,278.670 301.898 C 279.273 303.095,279.274 303.311,278.676 304.698 C 278.319 305.524,277.742 307.222,277.394 308.472 C 276.681 311.024,275.637 312.557,274.065 313.359 C 270.904 314.972,254.927 316.827,250.826 316.057 C 249.602 315.827,246.710 315.524,244.400 315.382 C 236.685 314.910,228.122 312.536,225.588 310.165 C 224.971 309.589,223.368 308.917,221.486 308.447 C 218.233 307.633,214.678 305.857,212.496 303.955 C 211.726 303.283,209.975 302.464,208.214 301.953 C 205.882 301.275,204.604 300.583,202.318 298.760 C 200.047 296.949,198.668 296.199,196.101 295.381 C 193.825 294.656,192.212 293.836,190.901 292.738 C 188.361 290.613,187.573 290.230,183.227 289.008 C 181.186 288.434,177.866 287.101,175.849 286.046 C 172.751 284.425,171.615 284.055,168.514 283.658 C 163.700 283.040,158.568 281.551,154.571 279.613 C 152.268 278.495,149.893 277.758,146.284 277.040 C 140.316 275.852,137.620 274.784,136.034 272.978 C 135.397 272.252,134.122 271.182,133.203 270.602 C 128.896 267.883,129.161 259.941,133.698 255.751 C 134.680 254.844,135.915 253.314,136.442 252.351 C 137.257 250.862,137.938 250.321,141.000 248.734 C 143.067 247.663,145.622 245.920,147.000 244.640 C 148.485 243.261,150.112 242.172,151.269 241.784 C 153.404 241.067,153.691 240.784,154.443 238.662 C 154.743 237.816,155.542 236.466,156.218 235.662 C 159.489 231.774,160.039 223.119,157.115 221.554 C 156.691 221.328,155.386 220.300,154.215 219.271 C 153.043 218.242,150.609 216.230,148.805 214.800 C 145.437 212.129,142.849 208.822,141.186 205.061 C 140.586 203.704,139.947 202.985,138.842 202.421 C 137.012 201.488,136.206 200.334,135.260 197.293 C 134.867 196.030,133.898 194.149,133.107 193.112 C 130.739 190.011,129.942 187.332,129.561 181.200 C 129.056 173.059,128.678 171.171,127.010 168.468 C 121.757 159.958,121.454 142.503,126.394 133.088 C 128.385 129.296,128.399 129.242,128.761 124.136 C 129.244 117.326,130.441 113.679,132.942 111.400 C 134.003 110.433,134.898 109.167,135.204 108.200 C 135.934 105.895,136.939 104.639,138.683 103.853 C 139.775 103.361,140.497 102.624,141.206 101.282 C 142.268 99.272,143.679 98.325,146.723 97.579 C 147.672 97.346,149.122 96.546,149.953 95.795 C 152.204 93.762,155.593 92.770,162.200 92.214 C 165.455 91.940,170.275 91.326,171.893 90.980 C 172.384 90.874,173.374 90.275,174.093 89.648 C 177.268 86.878,181.796 85.531,190.400 84.797 C 193.590 84.524,197.460 84.167,199.000 84.003 C 203.047 83.571,210.339 83.560,212.200 83.984 M108.954 89.777 C 108.453 91.082,109.012 91.738,111.128 92.326 C 112.400 92.680,113.746 93.407,114.471 94.133 C 115.626 95.287,115.707 95.309,116.116 94.579 C 116.762 93.425,119.017 91.200,119.540 91.200 C 120.422 91.200,119.992 89.977,118.974 89.590 C 117.261 88.939,109.218 89.088,108.954 89.777 M289.500 102.276 C 288.551 102.524,288.614 103.487,289.600 103.800 C 291.301 104.340,292.979 102.861,291.367 102.243 C 290.698 101.986,290.603 101.987,289.500 102.276 M106.472 108.825 C 106.723 110.445,109.383 111.499,111.011 110.622 C 113.560 109.249,112.550 108.000,108.892 108.000 C 106.544 108.000,106.354 108.065,106.472 108.825 M79.700 146.265 C 78.657 146.686,79.263 147.200,80.800 147.200 C 81.956 147.200,82.400 147.033,82.400 146.600 C 82.400 146.008,80.823 145.812,79.700 146.265 M277.600 284.171 C 277.600 284.542,277.942 284.800,278.433 284.800 C 279.408 284.800,279.270 283.865,278.267 283.671 C 277.872 283.594,277.600 283.798,277.600 284.171 M296.400 290.800 C 296.400 291.664,297.043 291.822,298.000 291.194 C 298.533 290.844,298.533 290.756,298.000 290.406 C 297.043 289.778,296.400 289.936,296.400 290.800 M114.972 295.771 C 114.664 296.994,115.119 298.494,115.734 298.289 C 116.328 298.091,116.540 297.010,116.228 295.768 C 115.916 294.524,115.284 294.526,114.972 295.771 M226.300 321.483 C 224.785 321.717,224.923 322.247,226.648 322.816 C 227.826 323.205,228.159 323.192,228.441 322.747 C 229.185 321.572,228.465 321.147,226.300 321.483 M252.163 328.900 C 252.304 329.395,252.527 330.295,252.660 330.900 C 252.910 332.046,253.114 332.162,254.167 331.757 C 254.858 331.492,255.046 330.400,254.400 330.400 C 254.180 330.400,254.000 329.860,254.000 329.200 C 254.000 328.172,253.850 328.000,252.953 328.000 C 252.059 328.000,251.944 328.131,252.163 328.900 M203.600 347.229 C 203.600 347.802,203.385 348.017,202.905 347.925 C 201.862 347.724,201.746 346.400,202.771 346.400 C 203.343 346.400,203.600 346.657,203.600 347.229 " stroke="none" fill="#edead1" fill-rule="evenodd"></path><path id="path2" d="M0.054 7.100 C 0.084 11.005,0.186 13.805,0.279 13.323 C 0.412 12.642,0.776 12.418,1.907 12.323 C 3.296 12.206,3.445 12.043,5.102 8.834 C 6.057 6.983,7.280 4.944,7.820 4.304 C 8.442 3.564,8.800 2.639,8.800 1.769 L 8.800 0.400 11.000 0.400 L 13.200 0.400 13.200 1.768 C 13.200 4.433,16.213 4.280,16.468 1.603 L 16.621 -0.000 8.311 -0.000 L 0.000 0.000 0.054 7.100 M390.005 1.500 C 390.017 4.803,389.920 4.740,395.241 4.877 L 400.002 5.000 400.001 2.500 L 400.000 0.000 395.000 0.000 L 390.000 0.000 390.005 1.500 M199.000 84.003 C 197.460 84.167,193.590 84.524,190.400 84.797 C 181.796 85.531,177.268 86.878,174.093 89.648 C 173.374 90.275,172.384 90.874,171.893 90.980 C 170.275 91.326,165.455 91.940,162.200 92.214 C 155.593 92.770,152.204 93.762,149.953 95.795 C 149.122 96.546,147.672 97.346,146.723 97.579 C 143.679 98.325,142.268 99.272,141.206 101.282 C 140.497 102.624,139.775 103.361,138.683 103.853 C 136.939 104.639,135.934 105.895,135.204 108.200 C 134.898 109.167,134.003 110.433,132.942 111.400 C 130.441 113.679,129.244 117.326,128.761 124.136 C 128.399 129.242,128.385 129.296,126.394 133.088 C 121.454 142.503,121.757 159.958,127.010 168.468 C 128.678 171.171,129.056 173.059,129.561 181.200 C 129.942 187.332,130.739 190.011,133.107 193.112 C 133.898 194.149,134.867 196.030,135.260 197.293 C 136.206 200.334,137.012 201.488,138.842 202.421 C 139.947 202.985,140.586 203.704,141.186 205.061 C 142.849 208.822,145.437 212.129,148.805 214.800 C 150.609 216.230,153.043 218.242,154.215 219.271 C 155.386 220.300,156.691 221.328,157.115 221.554 C 160.039 223.119,159.489 231.774,156.218 235.662 C 155.542 236.466,154.743 237.816,154.443 238.662 C 153.691 240.784,153.404 241.067,151.269 241.784 C 150.112 242.172,148.485 243.261,147.000 244.640 C 145.622 245.920,143.067 247.663,141.000 248.734 C 137.938 250.321,137.257 250.862,136.442 252.351 C 135.915 253.314,134.680 254.844,133.698 255.751 C 129.161 259.941,128.896 267.883,133.203 270.602 C 134.122 271.182,135.397 272.252,136.034 272.978 C 137.620 274.784,140.316 275.852,146.284 277.040 C 149.893 277.758,152.268 278.495,154.571 279.613 C 158.568 281.551,163.700 283.040,168.514 283.658 C 171.615 284.055,172.751 284.425,175.849 286.046 C 177.866 287.101,181.186 288.434,183.227 289.008 C 187.573 290.230,188.361 290.613,190.901 292.738 C 192.212 293.836,193.825 294.656,196.101 295.381 C 198.668 296.199,200.047 296.949,202.318 298.760 C 204.604 300.583,205.882 301.275,208.214 301.953 C 209.975 302.464,211.726 303.283,212.496 303.955 C 214.678 305.857,218.233 307.633,221.486 308.447 C 223.368 308.917,224.971 309.589,225.588 310.165 C 228.122 312.536,236.685 314.910,244.400 315.382 C 246.710 315.524,249.602 315.827,250.826 316.057 C 254.927 316.827,270.904 314.972,274.065 313.359 C 275.637 312.557,276.681 311.024,277.394 308.472 C 277.742 307.222,278.319 305.524,278.676 304.698 C 279.274 303.311,279.273 303.095,278.670 301.898 C 278.311 301.184,277.630 299.101,277.156 297.269 C 276.259 293.796,275.211 292.124,273.179 290.924 C 272.543 290.548,271.756 289.572,271.429 288.755 C 270.662 286.840,263.527 279.575,261.305 278.449 C 260.207 277.891,259.341 277.063,258.844 276.095 C 257.961 274.372,256.730 273.161,254.946 272.260 C 254.256 271.912,253.229 270.836,252.662 269.870 C 251.493 267.875,250.463 267.091,248.070 266.374 C 247.025 266.061,246.024 265.383,245.402 264.567 C 244.825 263.810,243.317 262.746,241.820 262.039 C 240.261 261.302,237.998 259.685,236.117 257.963 C 234.403 256.394,232.013 254.452,230.807 253.648 C 225.241 249.940,223.838 244.172,226.895 237.560 C 228.689 233.679,227.953 233.866,241.600 233.813 C 255.777 233.759,257.827 233.120,258.620 228.509 C 258.762 227.679,259.119 225.795,259.413 224.322 C 259.755 222.609,259.826 221.168,259.609 220.322 C 258.782 217.092,258.773 215.432,259.576 214.000 C 262.436 208.897,262.449 208.845,262.438 202.641 L 262.427 196.859 263.872 195.590 C 264.667 194.892,266.078 193.995,267.008 193.597 C 268.162 193.102,269.291 192.101,270.572 190.436 C 271.603 189.096,272.602 188.000,272.791 188.000 C 273.371 188.000,274.800 185.366,274.800 184.296 C 274.800 183.664,274.133 182.544,273.017 181.303 C 272.022 180.197,270.857 178.313,270.382 177.043 C 269.905 175.768,268.689 173.805,267.618 172.582 C 266.260 171.030,265.390 169.499,264.617 167.298 C 262.804 162.138,262.670 161.859,261.271 160.309 C 258.973 157.767,258.569 153.695,260.187 149.396 C 262.944 142.072,263.115 129.424,260.547 122.702 C 260.190 121.766,259.313 119.279,258.598 117.176 C 257.018 112.525,256.399 111.296,254.984 110.000 C 254.383 109.450,253.449 108.010,252.909 106.800 C 250.145 100.618,250.062 100.495,247.575 98.985 C 246.265 98.189,244.741 96.944,244.187 96.218 C 243.122 94.822,239.165 92.088,236.771 91.093 C 235.985 90.767,234.700 89.937,233.917 89.249 C 231.350 86.995,226.154 85.483,218.587 84.788 C 215.954 84.546,213.080 84.184,212.200 83.984 C 210.339 83.560,203.047 83.571,199.000 84.003 M214.400 86.404 C 221.862 86.959,223.609 87.362,228.200 89.584 C 230.400 90.649,233.435 92.078,234.943 92.760 C 236.466 93.447,238.451 94.755,239.405 95.699 C 240.351 96.635,242.492 98.457,244.164 99.749 C 247.645 102.439,249.618 104.923,251.025 108.384 C 251.566 109.715,252.797 111.957,253.762 113.365 C 258.305 120.002,259.805 131.593,258.010 146.200 C 256.847 155.661,257.071 159.170,259.014 161.910 C 260.757 164.368,262.491 167.672,263.417 170.299 C 263.824 171.453,264.935 173.343,265.885 174.499 C 268.025 177.100,271.330 183.827,271.039 184.988 C 270.686 186.395,268.081 189.105,263.437 192.899 L 259.000 196.523 258.979 201.562 C 258.964 205.229,258.706 207.797,258.031 211.000 C 257.290 214.521,257.154 216.079,257.353 218.800 C 257.690 223.425,256.880 228.436,255.568 229.838 C 253.793 231.737,253.572 231.768,240.729 231.989 C 226.350 232.236,227.372 231.911,224.242 237.236 C 221.573 241.774,221.158 245.817,223.106 248.290 C 223.760 249.120,224.851 250.708,225.531 251.817 C 226.330 253.121,227.373 254.168,228.483 254.778 C 229.427 255.298,231.295 256.820,232.632 258.161 C 235.552 261.088,242.373 265.807,246.552 267.790 C 248.925 268.916,249.844 269.611,250.801 271.002 C 251.473 271.978,252.841 273.340,253.840 274.028 C 254.839 274.715,256.298 276.170,257.082 277.261 C 257.865 278.351,259.446 279.844,260.594 280.579 C 261.742 281.314,263.076 282.552,263.558 283.332 C 264.040 284.112,265.313 285.381,266.387 286.153 C 267.487 286.943,268.822 288.396,269.442 289.478 C 270.048 290.535,271.412 292.335,272.473 293.477 C 274.627 295.796,274.965 296.508,275.870 300.625 C 276.481 303.406,276.473 303.578,275.605 306.185 C 273.737 311.800,271.147 313.084,260.600 313.625 C 245.552 314.397,239.124 313.544,231.576 309.776 C 230.133 309.056,227.163 307.981,224.976 307.387 C 220.237 306.101,219.126 305.574,216.942 303.577 C 215.750 302.487,214.365 301.771,212.008 301.026 C 207.957 299.747,207.453 299.482,205.157 297.429 C 203.928 296.329,202.023 295.269,199.438 294.246 C 197.306 293.402,194.536 291.950,193.281 291.019 C 191.792 289.914,189.491 288.794,186.654 287.794 C 184.263 286.951,181.693 285.844,180.942 285.335 C 178.412 283.618,177.352 283.253,171.860 282.204 C 165.717 281.032,164.530 280.665,160.342 278.648 C 158.301 277.665,155.605 276.863,151.536 276.027 C 143.252 274.325,141.918 273.720,135.929 268.943 C 132.657 266.333,132.518 265.931,133.618 262.228 C 135.220 256.831,140.337 251.090,145.449 248.954 C 146.250 248.619,147.827 247.484,148.953 246.432 C 150.079 245.380,152.028 243.869,153.284 243.074 C 154.762 242.140,155.842 241.095,156.345 240.115 C 156.772 239.282,157.685 238.060,158.373 237.400 C 162.010 233.913,162.645 223.169,159.366 220.610 C 158.513 219.944,156.732 218.305,155.408 216.966 C 154.083 215.627,152.361 214.150,151.580 213.683 C 149.816 212.628,144.268 206.493,143.220 204.439 C 142.793 203.602,141.376 201.992,140.072 200.862 C 137.542 198.671,137.196 198.060,136.183 194.000 C 135.827 192.570,134.798 190.061,133.898 188.425 C 132.430 185.757,132.229 185.053,131.951 181.625 C 131.505 176.131,129.525 166.727,128.029 163.000 C 123.909 152.738,124.005 142.817,128.288 136.341 C 129.469 134.553,130.367 129.827,130.386 125.290 C 130.403 121.207,131.264 118.580,133.715 115.128 C 134.702 113.738,135.845 111.621,136.255 110.425 C 136.718 109.074,137.566 107.711,138.494 106.825 C 141.071 104.368,142.788 102.650,144.165 101.152 C 145.148 100.082,146.056 99.573,147.648 99.198 C 148.831 98.919,151.873 97.924,154.408 96.987 C 156.942 96.050,160.452 95.067,162.208 94.804 C 169.387 93.727,177.104 91.616,179.000 90.209 C 183.734 86.696,197.887 85.175,214.400 86.404 M0.054 393.300 L 0.000 400.000 3.100 399.968 C 4.805 399.951,5.975 399.846,5.700 399.735 C 5.073 399.482,5.042 396.200,5.637 392.984 C 6.179 390.053,4.875 388.400,2.022 388.400 C 0.716 388.400,0.427 388.251,0.282 387.500 C 0.187 387.005,0.084 389.615,0.054 393.300 M399.758 394.200 C 399.758 397.280,399.821 398.487,399.897 396.882 C 399.973 395.278,399.973 392.758,399.896 391.282 C 399.819 389.807,399.757 391.120,399.758 394.200 M393.113 399.895 C 394.276 399.976,396.076 399.976,397.113 399.893 C 398.151 399.811,397.200 399.745,395.000 399.746 C 392.800 399.747,391.951 399.814,393.113 399.895 " stroke="none" fill="#a8a4a8" fill-rule="evenodd"></path><path id="path3" d="M194.800 86.414 C 186.096 86.809,182.379 87.701,179.000 90.209 C 177.104 91.616,169.387 93.727,162.208 94.804 C 160.452 95.067,156.942 96.050,154.408 96.987 C 151.873 97.924,148.831 98.919,147.648 99.198 C 146.056 99.573,145.148 100.082,144.165 101.152 C 142.788 102.650,141.071 104.368,138.494 106.825 C 137.566 107.711,136.718 109.074,136.255 110.425 C 135.845 111.621,134.702 113.738,133.715 115.128 C 131.264 118.580,130.403 121.207,130.386 125.290 C 130.367 129.827,129.469 134.553,128.288 136.341 C 124.005 142.817,123.909 152.738,128.029 163.000 C 129.525 166.727,131.505 176.131,131.951 181.625 C 132.229 185.053,132.430 185.757,133.898 188.425 C 134.798 190.061,135.827 192.570,136.183 194.000 C 137.196 198.060,137.542 198.671,140.072 200.862 C 141.376 201.992,142.793 203.602,143.220 204.439 C 144.268 206.493,149.816 212.628,151.580 213.683 C 152.361 214.150,154.083 215.627,155.408 216.966 C 156.732 218.305,158.513 219.944,159.366 220.610 C 162.645 223.169,162.010 233.913,158.373 237.400 C 157.685 238.060,156.772 239.282,156.345 240.115 C 155.842 241.095,154.762 242.140,153.284 243.074 C 152.028 243.869,150.079 245.380,148.953 246.432 C 147.827 247.484,146.250 248.619,145.449 248.954 C 140.337 251.090,135.220 256.831,133.618 262.228 C 132.518 265.931,132.657 266.333,135.929 268.943 C 141.918 273.720,143.252 274.325,151.536 276.027 C 155.605 276.863,158.301 277.665,160.342 278.648 C 164.530 280.665,165.717 281.032,171.860 282.204 C 177.352 283.253,178.412 283.618,180.942 285.335 C 181.693 285.844,184.263 286.951,186.654 287.794 C 189.491 288.794,191.792 289.914,193.281 291.019 C 194.536 291.950,197.306 293.402,199.438 294.246 C 202.023 295.269,203.928 296.329,205.157 297.429 C 207.453 299.482,207.957 299.747,212.008 301.026 C 214.365 301.771,215.750 302.487,216.942 303.577 C 219.126 305.574,220.237 306.101,224.976 307.387 C 227.163 307.981,230.133 309.056,231.576 309.776 C 239.124 313.544,245.552 314.397,260.600 313.625 C 271.147 313.084,273.737 311.800,275.605 306.185 C 276.473 303.578,276.481 303.406,275.870 300.625 C 274.965 296.508,274.627 295.796,272.473 293.477 C 271.412 292.335,270.048 290.535,269.442 289.478 C 268.822 288.396,267.487 286.943,266.387 286.153 C 265.313 285.381,264.040 284.112,263.558 283.332 C 263.076 282.552,261.742 281.314,260.594 280.579 C 259.446 279.844,257.865 278.351,257.082 277.261 C 256.298 276.170,254.839 274.715,253.840 274.028 C 252.841 273.340,251.473 271.978,250.801 271.002 C 249.844 269.611,248.925 268.916,246.552 267.790 C 242.373 265.807,235.552 261.088,232.632 258.161 C 231.295 256.820,229.427 255.298,228.483 254.778 C 227.373 254.168,226.330 253.121,225.531 251.817 C 224.851 250.708,223.760 249.120,223.106 248.290 C 221.158 245.817,221.573 241.774,224.242 237.236 C 227.372 231.911,226.350 232.236,240.729 231.989 C 253.572 231.768,253.793 231.737,255.568 229.838 C 256.880 228.436,257.690 223.425,257.353 218.800 C 257.154 216.079,257.290 214.521,258.031 211.000 C 258.706 207.797,258.964 205.229,258.979 201.562 L 259.000 196.523 263.437 192.899 C 268.081 189.105,270.686 186.395,271.039 184.988 C 271.330 183.827,268.025 177.100,265.885 174.499 C 264.935 173.343,263.824 171.453,263.417 170.299 C 262.491 167.672,260.757 164.368,259.014 161.910 C 257.071 159.170,256.847 155.661,258.010 146.200 C 259.805 131.593,258.305 120.002,253.762 113.365 C 252.797 111.957,251.566 109.715,251.025 108.384 C 249.618 104.923,247.645 102.439,244.164 99.749 C 242.492 98.457,240.351 96.635,239.405 95.699 C 238.451 94.755,236.466 93.447,234.943 92.760 C 233.435 92.078,230.400 90.649,228.200 89.584 C 221.393 86.289,213.679 85.557,194.800 86.414 M218.000 89.211 C 222.435 89.901,222.847 90.045,224.391 91.440 C 226.215 93.088,227.901 93.822,231.692 94.619 C 235.214 95.360,236.148 95.937,237.218 98.036 C 237.786 99.149,238.504 99.852,239.498 100.267 C 241.624 101.155,243.448 102.668,244.000 104.001 C 244.267 104.645,245.083 105.524,245.813 105.955 C 247.528 106.966,248.324 108.217,249.068 111.068 C 249.826 113.972,250.488 115.253,252.221 117.170 C 255.331 120.613,255.983 126.746,255.183 145.033 C 254.531 159.933,254.774 162.283,257.304 165.579 C 259.967 169.049,260.367 169.691,261.016 171.523 C 262.320 175.211,262.912 176.357,264.084 177.471 C 265.273 178.600,266.162 180.084,267.333 182.896 C 268.072 184.671,267.070 186.286,264.462 187.523 C 263.676 187.895,262.567 188.889,261.996 189.731 C 261.426 190.573,260.139 191.772,259.135 192.397 C 255.789 194.480,255.754 194.582,255.454 203.078 C 254.610 226.986,254.462 228.622,253.091 229.241 C 253.041 229.264,247.330 229.413,240.400 229.572 C 225.341 229.919,224.896 230.025,222.783 233.768 C 222.090 234.996,221.357 236.000,221.153 236.000 C 220.949 236.000,220.246 236.845,219.591 237.878 C 217.232 241.598,218.013 249.079,220.962 251.012 C 221.511 251.372,222.496 252.615,223.150 253.773 C 224.231 255.689,226.152 257.200,227.507 257.200 C 228.353 257.200,230.120 259.013,230.784 260.563 C 231.453 262.123,231.843 262.433,234.800 263.754 C 235.350 263.999,236.721 265.157,237.847 266.326 C 239.873 268.428,243.182 269.975,245.736 270.013 C 246.966 270.031,247.956 270.896,249.168 273.013 C 249.913 274.313,250.808 275.171,252.212 275.928 C 253.684 276.722,254.413 277.443,255.019 278.704 C 256.042 280.835,256.579 281.373,258.813 282.499 C 260.156 283.176,260.873 283.910,261.699 285.451 C 262.473 286.895,263.184 287.654,264.099 288.016 C 266.067 288.793,267.080 289.890,267.877 292.108 C 268.383 293.515,269.152 294.586,270.435 295.668 C 275.559 299.990,273.767 308.132,267.151 310.584 C 261.494 312.681,237.806 311.027,236.420 308.438 C 235.721 307.132,232.802 306.079,227.077 305.070 L 221.554 304.097 219.477 301.888 C 217.326 299.602,217.207 299.546,210.796 297.825 C 209.102 297.370,208.429 296.957,207.885 296.036 C 206.923 294.407,205.558 293.540,201.874 292.220 C 199.808 291.480,198.046 290.500,196.677 289.332 C 195.206 288.076,193.793 287.319,191.803 286.719 C 187.636 285.462,185.705 284.552,183.871 282.982 C 181.891 281.288,179.497 280.542,174.332 280.010 C 170.326 279.598,166.450 278.424,165.562 277.354 C 164.645 276.250,161.367 274.851,158.755 274.450 C 146.399 272.554,145.632 272.354,144.814 270.826 C 144.588 270.404,143.278 269.511,141.902 268.841 C 140.526 268.171,138.885 267.189,138.255 266.660 L 137.110 265.698 137.609 262.749 C 138.188 259.329,139.456 257.153,141.691 255.743 C 142.521 255.219,143.200 254.531,143.200 254.215 C 143.200 253.429,145.339 251.873,148.071 250.669 C 149.718 249.944,150.639 249.222,151.420 248.042 C 152.160 246.924,153.152 246.114,154.591 245.455 C 156.497 244.583,158.800 242.325,158.800 241.329 C 158.800 241.112,159.542 240.338,160.448 239.610 C 162.812 237.710,163.491 235.845,163.800 230.400 C 164.290 221.774,163.550 219.644,159.145 216.993 C 158.408 216.549,157.554 215.649,157.249 214.993 C 156.427 213.227,155.634 212.453,153.825 211.650 C 152.062 210.869,151.428 210.242,150.200 208.068 C 149.750 207.272,148.700 206.290,147.800 205.826 C 146.582 205.197,145.883 204.401,144.875 202.494 C 143.776 200.415,143.216 199.819,141.594 198.997 C 139.526 197.949,138.807 196.602,138.802 193.764 C 138.799 192.054,137.327 186.453,136.581 185.315 C 136.244 184.801,135.870 183.169,135.751 181.690 C 135.603 179.855,135.156 178.229,134.345 176.575 C 133.375 174.597,133.046 173.160,132.559 168.775 C 131.868 162.559,130.837 158.027,129.401 154.890 C 127.075 149.809,127.169 146.891,129.843 141.246 C 132.147 136.380,132.346 135.428,132.653 127.800 C 132.932 120.881,133.219 119.811,135.166 118.424 C 136.906 117.185,137.882 115.337,138.453 112.198 C 138.998 109.204,139.815 108.048,142.329 106.712 C 143.041 106.333,143.933 105.461,144.312 104.772 C 145.813 102.044,146.299 101.669,148.707 101.387 C 157.142 100.396,164.885 98.668,166.600 97.393 C 168.200 96.203,171.071 95.332,175.187 94.787 C 179.334 94.237,180.962 93.588,182.883 91.716 C 185.383 89.280,188.206 88.876,203.000 88.838 C 209.820 88.820,216.570 88.988,218.000 89.211 " stroke="none" fill="#6c6c6c" fill-rule="evenodd"></path><path id="path4" d="M208.072 44.603 C 207.592 45.155,207.200 46.068,207.200 46.632 C 207.200 47.196,206.730 48.460,206.155 49.440 C 205.247 50.990,205.145 51.501,205.376 53.347 C 205.695 55.897,205.076 57.602,203.836 57.596 C 202.618 57.589,198.737 53.995,198.193 52.371 C 197.700 50.895,195.701 49.283,193.920 48.925 C 193.327 48.806,192.534 48.369,192.158 47.954 C 191.298 47.003,190.371 46.997,189.154 47.936 C 188.629 48.341,187.607 48.874,186.882 49.121 C 183.841 50.159,183.163 51.021,183.287 53.694 L 183.400 56.115 180.543 56.810 C 174.317 58.323,173.774 60.088,178.540 63.319 C 181.105 65.058,179.699 66.679,174.812 67.618 C 165.162 69.472,161.215 66.394,166.699 61.291 L 168.997 59.152 167.999 58.385 C 167.449 57.963,166.427 57.506,165.726 57.369 C 164.008 57.034,163.170 56.003,162.756 53.714 C 161.873 48.826,157.431 48.692,156.658 53.530 C 156.232 56.189,155.046 57.027,150.884 57.609 C 146.476 58.226,146.228 58.368,144.991 60.983 C 144.428 62.172,143.334 63.702,142.560 64.381 L 141.153 65.617 142.077 66.786 C 142.584 67.429,143.185 67.966,143.411 67.978 C 143.637 67.990,144.130 68.360,144.507 68.800 C 145.491 69.949,147.288 69.807,150.499 68.327 C 153.645 66.876,153.779 66.938,154.206 70.045 C 154.496 72.156,153.887 73.497,152.238 74.380 C 151.277 74.894,150.800 76.242,150.800 78.444 C 150.800 81.820,147.267 83.099,143.800 80.978 L 141.400 79.510 137.925 80.204 C 131.937 81.401,130.975 80.846,129.824 75.532 C 128.972 71.598,128.760 71.435,124.974 71.790 L 121.944 72.073 120.172 74.481 C 119.197 75.805,118.372 77.093,118.337 77.344 C 118.303 77.595,118.240 78.296,118.197 78.903 C 117.960 82.259,112.013 82.231,112.003 78.873 C 112.001 78.364,111.550 77.357,111.000 76.636 C 110.450 75.914,110.000 75.041,110.000 74.695 C 110.000 72.789,107.261 72.060,104.618 73.264 C 102.253 74.342,99.380 79.388,100.570 80.375 C 101.101 80.816,101.154 81.732,100.937 86.752 C 100.654 93.293,100.987 94.671,103.099 95.683 C 104.591 96.398,106.750 105.587,105.709 106.797 C 104.671 108.004,97.200 105.857,97.200 104.352 C 97.200 102.468,82.196 116.412,80.412 119.954 C 79.926 120.918,79.114 122.122,78.607 122.629 C 78.101 123.136,77.030 124.932,76.229 126.621 C 74.649 129.949,72.971 132.393,72.253 132.413 C 70.100 132.473,68.651 136.769,68.603 143.232 C 68.576 146.898,68.520 147.133,67.330 148.635 C 65.395 151.079,63.680 154.784,63.367 157.200 C 63.183 158.621,62.743 159.808,62.122 160.553 C 61.594 161.188,60.787 162.448,60.329 163.353 C 59.871 164.259,59.249 165.144,58.948 165.320 C 58.245 165.730,58.251 166.835,58.963 168.268 C 59.273 168.890,59.768 169.925,60.063 170.568 C 60.732 172.021,64.081 175.600,64.773 175.600 C 65.054 175.600,65.986 176.155,66.842 176.834 L 68.400 178.067 68.387 181.134 C 68.377 183.452,68.205 184.395,67.681 185.000 C 66.371 186.515,65.693 186.878,64.926 186.476 C 64.527 186.268,62.980 186.009,61.489 185.900 C 59.905 185.785,58.491 185.453,58.089 185.102 C 57.710 184.772,56.680 184.279,55.800 184.006 C 54.920 183.734,53.981 183.235,53.712 182.896 C 52.309 181.125,48.619 189.547,49.244 193.095 C 49.900 196.815,50.794 198.000,52.946 198.000 C 60.111 198.000,62.498 203.925,57.055 208.200 C 55.685 209.277,55.741 209.657,57.513 211.319 C 60.354 213.984,61.320 214.800,61.633 214.800 C 62.728 214.800,61.727 215.991,59.925 216.832 C 56.004 218.661,54.804 220.594,54.801 225.077 C 54.799 230.214,57.232 232.800,62.066 232.800 C 65.351 232.800,66.401 233.644,66.394 236.280 C 66.385 239.681,66.115 239.887,63.670 238.367 C 61.962 237.305,61.512 237.175,61.003 237.597 C 60.123 238.328,54.477 237.312,53.852 236.311 C 52.019 233.376,50.751 240.195,52.213 245.121 C 52.903 247.443,53.625 248.000,55.945 248.000 C 57.902 248.000,62.058 250.079,64.634 252.347 C 65.630 253.223,67.252 254.215,68.238 254.551 C 71.976 255.825,73.817 258.476,74.106 263.002 C 74.494 269.072,77.861 273.049,80.994 271.139 C 83.582 269.560,87.200 270.828,87.200 273.314 C 87.200 273.837,87.650 275.150,88.200 276.232 C 89.033 277.872,89.107 278.269,88.643 278.612 C 88.337 278.839,87.410 279.919,86.582 281.012 C 85.755 282.105,84.835 283.144,84.539 283.320 C 83.583 283.888,83.940 284.437,87.500 287.876 C 89.425 289.736,91.760 291.992,92.689 292.889 C 93.618 293.787,94.565 295.080,94.793 295.761 C 95.139 296.796,95.664 297.185,97.989 298.125 C 101.127 299.395,104.662 302.299,105.065 303.939 C 105.819 307.002,107.225 307.724,112.248 307.629 C 116.130 307.556,117.380 308.217,118.191 310.771 C 118.326 311.198,119.464 312.224,120.719 313.053 C 123.542 314.916,130.257 320.651,130.570 321.465 C 130.696 321.795,130.800 322.469,130.800 322.963 C 130.800 324.177,132.128 325.326,134.985 326.582 C 138.841 328.278,139.689 329.673,138.400 332.200 C 137.392 334.177,137.399 334.720,138.478 338.069 C 139.735 341.973,141.234 342.235,143.583 338.963 C 145.839 335.822,146.389 335.816,149.517 338.902 C 154.610 343.926,162.985 344.500,164.800 339.951 C 165.096 339.208,165.353 338.569,165.370 338.532 C 165.388 338.495,166.907 338.160,168.746 337.787 L 172.090 337.109 174.145 339.180 C 178.492 343.561,183.374 345.196,187.228 343.564 C 191.182 341.889,192.395 340.885,192.440 339.247 C 192.462 338.451,192.609 337.350,192.768 336.800 C 192.926 336.250,192.870 335.493,192.643 335.118 C 191.996 334.050,192.497 333.886,197.300 333.593 C 199.775 333.442,202.094 333.190,202.454 333.034 C 203.330 332.653,206.375 335.855,207.983 338.846 C 210.928 344.327,224.466 344.354,221.788 338.874 C 220.957 337.174,220.858 334.400,221.628 334.400 C 221.864 334.400,222.910 335.120,223.954 336.000 C 226.891 338.477,229.104 338.121,230.762 334.904 C 231.509 333.456,233.336 332.796,237.329 332.534 L 241.057 332.289 241.584 333.562 C 242.307 335.306,241.643 336.667,239.699 337.431 C 238.875 337.755,237.924 338.173,237.587 338.359 C 237.250 338.546,236.350 338.825,235.587 338.979 C 231.323 339.842,231.568 340.806,236.290 341.749 C 238.245 342.140,238.586 342.346,238.837 343.292 C 239.133 344.407,240.081 345.601,240.671 345.599 C 241.253 345.598,244.050 342.380,244.215 341.522 C 244.491 340.088,244.235 340.122,250.973 340.629 C 253.965 340.855,254.186 340.815,254.864 339.934 C 255.784 338.738,255.776 338.510,254.800 338.200 C 253.266 337.713,255.283 334.889,258.528 332.982 C 260.013 332.108,260.883 331.233,261.600 329.889 C 262.815 327.610,264.137 326.973,267.366 327.111 C 269.939 327.221,270.992 327.765,270.565 328.764 C 270.416 329.114,270.323 329.936,270.360 330.592 C 270.397 331.248,270.106 332.386,269.713 333.120 C 268.559 335.283,270.598 336.346,273.260 334.969 C 274.536 334.309,274.591 333.886,273.801 330.799 C 273.660 330.248,273.753 329.258,274.007 328.599 C 274.262 327.940,274.505 326.500,274.547 325.400 C 274.672 322.164,275.411 321.137,278.334 320.134 C 280.940 319.240,283.794 317.515,284.135 316.626 C 284.546 315.554,290.833 315.267,292.335 316.252 C 294.400 317.605,297.888 316.305,296.420 314.730 C 295.969 314.245,295.600 313.703,295.600 313.525 C 295.600 313.346,295.330 313.200,295.000 313.200 C 294.325 313.200,294.315 313.144,294.395 309.727 C 294.460 306.985,293.800 305.907,291.584 305.135 C 290.260 304.673,289.829 303.691,290.202 301.991 C 290.515 300.565,290.216 300.586,292.962 301.800 C 295.555 302.947,296.923 303.042,298.907 302.213 C 299.680 301.890,301.907 301.276,303.856 300.848 C 305.805 300.421,308.782 299.605,310.471 299.035 C 312.159 298.466,314.409 297.991,315.471 297.981 C 317.696 297.959,320.128 296.915,320.324 295.899 C 320.425 295.376,320.192 295.200,319.402 295.200 C 318.544 295.200,318.392 295.057,318.589 294.434 C 319.176 292.585,318.420 291.514,316.647 291.684 C 312.976 292.036,313.416 287.826,317.543 283.126 C 319.252 281.179,319.064 275.600,317.289 275.600 C 317.129 275.600,316.570 274.792,316.047 273.806 C 314.677 271.224,315.308 267.200,317.083 267.200 C 317.270 267.200,317.683 266.840,318.000 266.400 C 318.317 265.960,318.779 265.600,319.027 265.600 C 319.655 265.600,322.087 264.360,322.752 263.701 C 323.055 263.400,323.595 263.275,323.952 263.422 C 325.498 264.062,325.920 263.994,327.028 262.921 C 330.402 259.655,331.038 255.600,328.176 255.600 C 326.492 255.600,326.851 253.185,329.396 247.400 C 329.686 246.740,330.935 245.030,332.172 243.600 C 334.150 241.311,336.800 236.788,336.800 235.699 C 336.800 234.830,340.125 231.591,341.331 231.284 C 342.043 231.103,342.773 230.575,342.995 230.081 C 343.212 229.596,343.527 229.200,343.695 229.200 C 343.863 229.200,344.000 223.346,344.000 216.190 L 344.000 203.180 341.522 200.756 C 340.160 199.422,338.360 198.057,337.522 197.722 C 335.421 196.882,335.653 196.004,338.140 195.379 C 339.505 195.037,343.600 191.287,343.600 190.379 C 343.600 190.025,342.790 189.154,341.800 188.443 C 340.810 187.732,340.000 187.003,340.000 186.823 C 340.000 186.642,339.210 186.296,338.245 186.053 C 335.911 185.465,335.462 182.726,337.327 180.453 C 337.574 180.153,337.847 178.132,337.934 175.964 L 338.092 172.022 336.686 169.911 C 335.913 168.750,334.812 167.364,334.240 166.830 C 332.230 164.956,332.982 162.584,335.377 163.245 C 336.838 163.648,337.045 163.584,339.321 162.013 C 340.642 161.101,342.236 160.253,342.862 160.128 C 344.373 159.825,344.293 159.327,342.411 157.300 C 340.791 155.555,340.241 155.287,339.788 156.020 C 339.551 156.403,337.600 154.714,337.600 154.125 C 337.600 153.716,335.578 152.001,335.079 151.987 C 332.690 151.920,330.206 145.467,331.215 141.949 C 331.614 140.556,330.765 138.753,328.553 136.299 C 327.007 134.583,327.004 134.558,327.977 131.600 C 328.375 130.390,328.631 129.005,328.546 128.522 C 328.398 127.679,328.717 127.006,330.699 123.975 C 331.904 122.130,331.882 122.043,329.700 119.934 C 325.344 115.725,322.480 114.379,319.624 115.198 C 316.396 116.125,308.364 116.112,307.495 115.179 C 307.095 114.751,306.609 114.400,306.413 114.400 C 306.218 114.400,305.933 113.365,305.781 112.100 C 305.518 109.919,305.351 109.642,302.552 106.746 C 299.754 103.851,299.600 103.596,299.600 101.854 C 299.600 99.371,298.625 97.168,297.098 96.200 C 296.404 95.760,295.240 94.590,294.513 93.600 C 293.785 92.610,292.969 91.536,292.699 91.214 C 292.429 90.892,291.902 89.759,291.528 88.697 C 290.797 86.623,289.600 85.355,288.000 84.959 C 285.422 84.322,283.378 83.486,281.858 82.447 C 280.946 81.823,279.652 81.032,278.983 80.689 C 278.135 80.254,277.127 78.936,275.652 76.333 C 272.640 71.017,272.292 70.684,269.065 70.043 C 266.483 69.530,266.272 69.545,265.236 70.310 C 263.753 71.406,260.669 72.421,258.000 72.692 C 256.790 72.814,255.322 73.249,254.738 73.657 C 252.982 74.886,252.409 74.314,251.819 70.736 C 251.590 69.349,249.554 66.800,248.674 66.800 C 248.469 66.800,246.838 66.135,245.050 65.321 C 242.125 63.991,241.348 63.817,237.283 63.587 C 232.089 63.292,230.883 62.719,230.179 60.210 C 229.804 58.872,228.731 57.600,227.978 57.600 C 227.831 57.600,226.511 58.770,225.045 60.200 C 221.862 63.306,221.957 63.290,220.883 60.900 C 219.409 57.620,219.504 54.687,221.100 54.217 C 221.815 54.007,222.400 53.602,222.400 53.317 C 222.400 52.689,218.182 52.582,217.800 53.200 C 217.272 54.055,215.201 53.659,215.186 52.700 C 215.178 52.205,214.914 51.350,214.600 50.800 C 214.286 50.250,214.022 49.242,214.014 48.559 C 214.002 47.528,213.600 47.004,211.634 45.459 C 208.852 43.274,209.163 43.348,208.072 44.603 M233.801 52.396 C 233.313 53.936,234.492 54.362,237.550 53.750 C 239.268 53.406,239.121 53.073,236.900 52.277 C 234.478 51.409,234.110 51.423,233.801 52.396 M192.279 55.800 C 194.801 57.566,193.140 64.582,190.369 63.874 C 186.485 62.882,183.374 58.000,185.213 55.784 C 185.892 54.967,191.106 54.979,192.279 55.800 M209.770 58.665 C 210.966 61.783,208.543 65.965,204.828 67.191 C 203.076 67.769,198.800 66.489,198.800 65.386 C 198.800 64.653,203.232 61.209,204.200 61.190 C 205.261 61.169,206.271 60.366,206.458 59.393 C 206.591 58.702,207.145 58.436,209.257 58.047 C 209.399 58.021,209.629 58.299,209.770 58.665 M216.800 71.825 C 216.800 72.287,216.469 72.418,215.531 72.325 C 213.697 72.144,213.559 71.200,215.367 71.200 C 216.400 71.200,216.800 71.375,216.800 71.825 M173.200 76.800 C 174.523 78.123,173.997 78.807,171.667 78.794 C 169.721 78.783,169.287 78.185,170.380 77.021 C 171.536 75.791,172.143 75.743,173.200 76.800 M223.654 80.696 C 224.277 81.064,225.062 81.945,225.398 82.653 C 226.060 84.046,227.157 84.542,230.600 85.003 C 236.254 85.760,238.122 86.646,239.019 88.995 C 239.628 90.588,239.900 90.845,241.354 91.200 C 244.462 91.958,245.728 92.854,246.440 94.800 C 247.045 96.451,247.257 96.640,248.997 97.081 C 251.542 97.725,252.279 98.491,252.808 101.038 C 253.224 103.043,253.371 103.238,255.001 103.959 C 256.508 104.626,256.811 104.969,257.208 106.466 C 258.889 112.792,259.777 114.811,261.330 115.839 C 263.683 117.395,263.976 118.562,264.413 128.082 C 264.837 137.314,264.475 144.738,263.334 150.234 C 262.612 153.713,262.663 154.176,264.613 162.000 C 264.970 163.430,265.343 165.010,265.441 165.511 C 265.549 166.059,266.171 166.685,266.997 167.079 C 268.271 167.687,269.559 169.538,269.628 170.860 C 269.719 172.590,272.678 177.397,274.154 178.211 C 281.106 182.046,275.346 195.600,266.765 195.600 C 264.668 195.600,264.474 196.319,264.331 204.600 C 264.209 211.659,264.133 212.325,263.266 213.950 C 262.691 215.027,262.427 216.026,262.578 216.550 C 264.023 221.565,264.052 221.852,263.400 224.662 C 262.781 227.333,261.099 230.800,260.423 230.800 C 260.234 230.800,259.706 231.433,259.249 232.206 C 258.793 232.980,257.975 233.782,257.431 233.988 C 256.887 234.195,255.694 235.040,254.780 235.865 C 251.898 238.469,246.924 238.275,236.136 235.138 C 234.534 234.672,234.419 234.701,233.043 235.909 C 232.256 236.599,230.878 237.384,229.980 237.653 C 225.941 238.863,225.737 247.569,229.704 249.412 C 230.779 249.911,231.637 250.674,232.047 251.495 C 233.038 253.479,233.499 253.891,235.492 254.569 C 237.869 255.380,238.707 256.168,239.222 258.081 C 239.651 259.675,240.666 260.390,242.526 260.409 C 244.225 260.426,247.249 262.162,250.297 264.872 C 251.698 266.117,253.117 266.952,254.534 267.363 C 256.682 267.988,257.600 269.000,257.600 270.744 C 257.600 271.627,259.471 273.414,260.800 273.801 C 262.239 274.220,263.519 275.520,263.814 276.864 C 264.109 278.207,265.258 279.078,267.221 279.448 C 269.122 279.806,270.295 280.994,270.615 282.886 C 270.973 285.006,272.018 285.998,273.900 286.006 C 276.020 286.015,276.408 286.395,276.795 288.840 C 277.367 292.451,278.374 294.715,280.043 296.144 C 282.191 297.983,282.677 299.451,283.169 305.586 C 283.713 312.371,283.263 313.200,279.039 313.200 C 278.565 313.200,277.871 313.558,277.496 313.996 C 277.121 314.434,275.713 315.099,274.368 315.473 C 272.551 315.978,271.834 316.385,271.579 317.055 C 271.115 318.276,269.763 319.069,267.600 319.390 C 266.610 319.537,264.493 319.916,262.895 320.233 C 260.494 320.709,258.320 320.741,250.349 320.414 C 239.735 319.980,238.987 319.800,237.400 317.301 C 236.359 315.661,236.209 315.609,230.774 314.995 C 225.079 314.352,223.561 313.757,222.227 311.642 C 221.127 309.900,220.381 309.582,214.091 308.180 C 211.458 307.593,211.042 307.362,209.691 305.732 C 207.845 303.505,207.111 303.119,202.600 302.002 C 198.378 300.957,198.139 300.802,197.582 298.733 C 197.349 297.867,196.943 297.100,196.679 297.029 C 196.416 296.957,194.229 296.422,191.820 295.839 C 187.152 294.710,186.214 294.167,185.332 292.083 C 184.685 290.552,184.956 290.664,179.800 289.802 C 177.600 289.434,174.630 288.794,173.200 288.379 C 171.770 287.964,169.860 287.439,168.955 287.212 C 168.050 286.985,166.622 286.332,165.781 285.761 C 163.709 284.355,162.891 284.081,158.652 283.375 C 150.960 282.093,149.172 281.573,147.613 280.164 C 145.721 278.455,145.003 278.201,139.951 277.450 C 135.644 276.810,133.156 276.014,131.856 274.860 C 126.836 270.404,127.594 254.543,132.883 253.382 C 133.527 253.240,134.147 252.827,134.261 252.462 C 135.399 248.820,135.968 248.256,139.201 247.563 C 141.106 247.154,141.319 246.989,142.006 245.386 C 142.800 243.534,143.870 242.627,145.800 242.170 C 151.261 240.879,154.374 237.221,155.215 231.107 C 156.145 224.355,154.866 220.000,151.953 220.000 C 150.475 220.000,148.132 218.484,147.591 217.179 C 147.224 216.292,146.552 215.694,145.338 215.173 C 143.374 214.332,142.220 212.735,141.835 210.328 C 141.661 209.240,141.175 208.355,140.341 207.606 C 139.661 206.995,138.745 206.159,138.307 205.748 C 137.050 204.570,134.945 200.947,134.413 199.047 C 134.036 197.698,133.629 197.171,132.584 196.673 C 130.079 195.478,128.720 190.808,128.162 181.475 C 127.921 177.449,127.751 176.618,126.941 175.520 C 126.424 174.819,126.000 174.036,126.000 173.782 C 126.000 173.527,125.548 172.468,124.995 171.428 C 123.732 169.054,123.394 167.532,122.416 159.831 C 121.984 156.421,121.253 152.072,120.792 150.165 C 120.014 146.949,119.998 146.587,120.572 145.153 C 120.912 144.303,121.737 140.771,122.404 137.304 C 123.072 133.837,123.794 130.349,124.009 129.554 C 124.224 128.758,124.400 126.611,124.400 124.782 L 124.400 121.456 126.155 119.821 C 128.019 118.086,128.794 116.214,128.798 113.439 C 128.801 110.878,130.564 107.667,132.422 106.835 C 134.213 106.033,136.308 103.395,136.669 101.486 C 137.083 99.298,137.558 98.799,140.526 97.431 C 142.107 96.702,143.614 95.742,143.875 95.298 C 144.961 93.453,148.042 91.891,151.200 91.584 C 152.850 91.423,156.623 91.061,159.584 90.778 C 164.663 90.294,165.027 90.201,165.989 89.147 C 166.688 88.383,167.704 87.881,169.205 87.560 C 170.412 87.301,172.120 86.766,173.000 86.371 C 173.880 85.976,176.279 85.350,178.330 84.980 C 181.606 84.388,182.275 84.120,183.825 82.778 C 185.045 81.722,186.117 81.176,187.295 81.008 C 188.233 80.875,190.710 80.509,192.800 80.195 C 198.449 79.346,222.018 79.729,223.654 80.696 M126.250 84.000 C 128.832 84.000,128.378 84.546,125.312 85.127 C 123.834 85.408,122.480 85.854,122.304 86.119 C 122.071 86.470,121.825 86.390,121.392 85.824 C 120.211 84.275,120.985 83.488,123.350 83.832 C 123.983 83.925,125.288 84.000,126.250 84.000 M118.974 89.590 C 119.992 89.977,120.422 91.200,119.540 91.200 C 119.017 91.200,116.762 93.425,116.116 94.579 C 115.707 95.309,115.626 95.287,114.471 94.133 C 113.746 93.407,112.400 92.680,111.128 92.326 C 109.012 91.738,108.453 91.082,108.954 89.777 C 109.218 89.088,117.261 88.939,118.974 89.590 M291.367 102.243 C 292.979 102.861,291.301 104.340,289.600 103.800 C 288.614 103.487,288.551 102.524,289.500 102.276 C 290.603 101.987,290.698 101.986,291.367 102.243 M111.920 108.480 C 113.521 110.081,110.338 111.777,108.111 110.510 C 105.507 109.028,105.827 108.000,108.892 108.000 C 110.340 108.000,111.647 108.207,111.920 108.480 M82.400 146.600 C 82.400 147.033,81.956 147.200,80.800 147.200 C 78.336 147.200,78.806 146.103,81.300 146.032 C 82.025 146.011,82.400 146.204,82.400 146.600 M279.100 284.300 C 279.198 284.593,278.922 284.800,278.433 284.800 C 277.942 284.800,277.600 284.542,277.600 284.171 C 277.600 283.436,278.848 283.543,279.100 284.300 M298.000 290.406 C 298.533 290.756,298.533 290.844,298.000 291.194 C 297.043 291.822,296.400 291.664,296.400 290.800 C 296.400 289.936,297.043 289.778,298.000 290.406 M116.228 295.768 C 116.540 297.010,116.328 298.091,115.734 298.289 C 115.119 298.494,114.664 296.994,114.972 295.771 C 115.284 294.526,115.916 294.524,116.228 295.768 M228.660 321.800 C 228.995 322.858,228.117 323.301,226.648 322.816 C 224.923 322.247,224.785 321.717,226.300 321.483 C 227.839 321.244,228.513 321.335,228.660 321.800 M254.000 329.200 C 254.000 329.860,254.180 330.400,254.400 330.400 C 255.046 330.400,254.858 331.492,254.167 331.757 C 253.114 332.162,252.910 332.046,252.660 330.900 C 252.527 330.295,252.304 329.395,252.163 328.900 C 251.944 328.131,252.059 328.000,252.953 328.000 C 253.850 328.000,254.000 328.172,254.000 329.200 M202.075 347.095 C 202.276 348.138,203.600 348.254,203.600 347.229 C 203.600 346.657,203.343 346.400,202.771 346.400 C 202.198 346.400,201.983 346.615,202.075 347.095 " stroke="none" fill="#f4f4ee" fill-rule="evenodd"></path></g></svg>